<?xml version="1.0" encoding="UTF-8"?>
<svg version="1.1" xmlns="http://www.w3.org/2000/svg" width="709" height="263">
<path d="M0 0 C233.97 0 467.94 0 709 0 C709 86.79 709 173.58 709 263 C475.03 263 241.06 263 0 263 C0 176.21 0 89.42 0 0 Z " fill="#FDFDFE" transform="translate(0,0)"/>
<path d="M0 0 C3.58955086 0.91713739 7.18981853 1.70670075 10.8203125 2.4453125 C12.3530481 2.76012573 12.3530481 2.76012573 13.91674805 3.08129883 C15.92038556 3.48947965 17.92571822 3.889451 19.93286133 4.2800293 C32.22489925 6.82846969 32.22489925 6.82846969 36.2121582 11.93432617 C37.51835154 13.9840879 38.69417181 16.07641125 39.86328125 18.20703125 C40.75122058 19.6534972 41.64320879 21.09748484 42.5390625 22.5390625 C43.42025025 24.03120709 44.29914675 25.52470709 45.17578125 27.01953125 C45.63017578 27.74978516 46.08457031 28.48003906 46.55273438 29.23242188 C50.47489689 36.00921094 50.99292759 42.11061289 49.30151367 49.74145508 C48.55911299 52.27183123 47.71006109 54.73188888 46.80078125 57.20703125 C46.32813843 58.54737427 46.32813843 58.54737427 45.84594727 59.91479492 C45.19007503 61.76541379 44.52655316 63.6133391 43.85546875 65.45849609 C42.89032008 68.1321289 41.96603388 70.81674897 41.05078125 73.5078125 C40.46881777 75.17886311 39.88553985 76.84945669 39.30078125 78.51953125 C39.04482178 79.27685547 38.7888623 80.03417969 38.52514648 80.81445312 C36.01088862 87.78823907 32.15727259 94.77282341 25.30078125 98.20703125 C16.49494841 102.12073474 7.51963395 100.75584899 -1.4140625 97.9921875 C-4.19662765 97.1897548 -6.89956505 96.70177487 -9.76171875 96.26953125 C-14.88749846 95.45772582 -19.94787818 94.46090249 -25.01171875 93.33203125 C-25.72537598 93.18258057 -26.4390332 93.03312988 -27.17431641 92.87915039 C-34.81096264 91.12822645 -39.35358368 87.62082537 -43.48828125 81.046875 C-56.81245206 58.09267552 -56.81245206 58.09267552 -54.66342163 49.26223755 C-53.98581886 47.15145408 -53.24383259 45.07696334 -52.46875 43 C-52.19205978 42.23456375 -51.91536957 41.4691275 -51.6302948 40.68049622 C-51.04457683 39.067526 -50.45343489 37.45651616 -49.85717773 35.84741211 C-48.95736368 33.41653505 -48.07597953 30.97958835 -47.19726562 28.54101562 C-38.05275845 3.37743691 -38.05275845 3.37743691 -26.71484375 -1.92578125 C-17.9353692 -4.87887724 -8.65993171 -2.22279863 0 0 Z " fill="#4F58D4" transform="translate(59.13671875,133.79296875)"/>
<path d="M0 0 C1.24734924 0.2521225 1.24734924 0.2521225 2.51989746 0.50933838 C4.26530549 0.86478435 6.00981162 1.22468601 7.75341797 1.58886719 C10.3967191 2.13864269 13.04358151 2.66781041 15.69140625 3.1953125 C17.39869161 3.5456389 19.10573192 3.8971621 20.8125 4.25 C21.9800885 4.48151764 21.9800885 4.48151764 23.17126465 4.7177124 C33.80961818 6.9820356 40.36827421 10.56285854 46.39746094 19.63427734 C47.93118702 22.0795576 49.36337987 24.56410256 50.78125 27.078125 C51.27882813 27.89990234 51.77640625 28.72167969 52.2890625 29.56835938 C56.43414298 36.91904467 57.47830773 43.2850646 55.35235596 51.5418396 C53.86598346 56.61177596 52.09703321 61.56910034 50.25439453 66.51904297 C49.28111198 69.14099682 48.3438116 71.77386641 47.41015625 74.41015625 C46.79375707 76.10753142 46.17533519 77.8041737 45.5546875 79.5 C45.2794223 80.27414246 45.0041571 81.04828491 44.72055054 81.84588623 C42.10256541 88.78264706 38.20577804 95.953644 31.34375 99.390625 C19.90944949 104.16502113 7.24723642 100.65613954 -4.4074707 98.19238281 C-7.04732295 97.637245 -9.69181504 97.11051252 -12.33789062 96.5859375 C-14.03680421 96.23605026 -15.73538562 95.88454534 -17.43359375 95.53125 C-18.60558571 95.29973236 -18.60558571 95.29973236 -19.80125427 95.0635376 C-28.56519295 93.16613152 -33.26588796 88.68717033 -38.09375 81.390625 C-44.44618199 71.39974184 -50.50659777 61.61337212 -48.09375 49.390625 C-47.54470386 47.30803621 -46.8924629 45.43675704 -46.01171875 43.47265625 C-44.86562591 40.87322015 -44.02558871 38.21985252 -43.15625 35.515625 C-41.62564114 30.8830598 -39.95297512 26.34991719 -38.09375 21.83984375 C-37.40148739 20.14434119 -36.73651564 18.43753489 -36.09375 16.72265625 C-32.81430772 8.05006867 -29.27511301 4.19882576 -21.23828125 -0.47265625 C-14.32513175 -2.97169538 -7.02614881 -1.46628086 0 0 Z " fill="#4F57D4" transform="translate(172.09375,15.609375)"/>
<path d="M0 0 C8.80205441 6.24859929 14.53321356 13.47861956 17 24 C18.31962414 36.80093552 17.43371817 49.0819367 9.875 59.875 C4.14887294 66.66015271 -4.18917776 71.43219123 -13.078125 72.30078125 C-23.96461118 72.34100226 -32.79153995 70.80114558 -40.96484375 63.1640625 C-49.12615472 54.744386 -52.45420514 46.11490872 -52.5625 34.5 C-52.34609666 22.57208191 -49.89054989 13.83391407 -41.3671875 5.12890625 C-29.60424707 -5.44997582 -14.19046331 -7.14310771 0 0 Z " fill="#050505" transform="translate(415,103)"/>
<path d="M0 0 C6.27 0 12.54 0 19 0 C24.8872558 12.3783327 30.10278935 25.03059385 35.09277344 37.79541016 C35.44114258 38.68405762 35.78951172 39.57270508 36.1484375 40.48828125 C36.6112915 41.68191284 36.6112915 41.68191284 37.08349609 42.8996582 C38.02847657 45.2329852 38.02847657 45.2329852 40 48 C43.12267962 42.23505301 45.45442732 36.27874249 47.71508789 30.13769531 C49.97324551 24.0166196 52.44948578 18.00500816 55 12 C55.93896512 9.75061103 56.87649373 7.50062181 57.8125 5.25 C58.534375 3.5175 59.25625 1.785 60 0 C66.6 0 73.2 0 80 0 C80 24.42 80 48.84 80 74 C75.05 74 70.1 74 65 74 C65 58.16 65 42.32 65 26 C64.34 26 63.68 26 63 26 C62.87109375 26.70898438 62.7421875 27.41796875 62.609375 28.1484375 C60.89403795 36.17533524 57.78149639 43.67072765 54.29296875 51.06640625 C52.32635051 55.52843132 50.7789424 60.1237165 49.2109375 64.73828125 C48.01381975 67.96277582 46.59395077 70.95490907 45 74 C41.37 74 37.74 74 34 74 C33.48050781 72.61167969 32.96101562 71.22335938 32.42578125 69.79296875 C28.17307982 58.30228129 28.17307982 58.30228129 23.3125 47.0625 C20.48479179 40.87211176 18.28898702 34.40916365 16 28 C15.67 43.18 15.34 58.36 15 74 C10.05 74 5.1 74 0 74 C0 49.58 0 25.16 0 0 Z " fill="#060606" transform="translate(622,100)"/>
<path d="M0 0 C42.09355263 0 42.09355263 0 50.4453125 8.23046875 C55.42978459 13.9037498 56.3052568 19.06007945 56.21875 26.40234375 C55.70132835 32.54672588 53.2991669 37.57438702 49 42 C46.25 43.8125 46.25 43.8125 44 45 C45.35846559 48.58378844 46.95441397 51.88437216 48.8203125 55.23046875 C49.35527344 56.19791016 49.89023437 57.16535156 50.44140625 58.16210938 C51.57062886 60.19130407 52.7008493 62.21994377 53.83203125 64.24804688 C54.36441406 65.21162109 54.89679687 66.17519531 55.4453125 67.16796875 C56.18031982 68.48704224 56.18031982 68.48704224 56.93017578 69.83276367 C58 72 58 72 58 74 C52.39 74 46.78 74 41 74 C39.01524646 70.41966027 37.03702671 66.83597359 35.0625 63.25 C34.49853516 62.23421875 33.93457031 61.2184375 33.35351562 60.171875 C32.81533203 59.1921875 32.27714844 58.2125 31.72265625 57.203125 C31.22515869 56.30239258 30.72766113 55.40166016 30.21508789 54.47363281 C29 52 29 52 28 48 C24.04 48 20.08 48 16 48 C16 56.58 16 65.16 16 74 C10.72 74 5.44 74 0 74 C0 49.58 0 25.16 0 0 Z " fill="#060606" transform="translate(555,100)"/>
<path d="M0 0 C1.01513672 0.19658203 2.03027344 0.39316406 3.07617188 0.59570312 C10.53382783 2.17881102 14.54945992 4.10103549 19.30078125 10.20703125 C19.77902344 11.00496094 20.25726563 11.80289063 20.75 12.625 C21.48669922 13.81029297 21.48669922 13.81029297 22.23828125 15.01953125 C25.92839793 23.61377694 23.62862741 29.63863724 20.375 38 C19.99150391 39.06669922 19.60800781 40.13339844 19.21289062 41.23242188 C16.8921607 47.34584388 15.02127113 51.2743438 9.4375 54.8125 C2.07418464 57.26693845 -5.40077646 55.2784519 -12.75 53.625 C-13.72130859 53.42841797 -14.69261719 53.23183594 -15.69335938 53.02929688 C-23.06445508 51.38734615 -26.41356751 49.13357748 -30.58203125 42.69140625 C-31.17371094 41.59699219 -31.76539063 40.50257812 -32.375 39.375 C-32.97957031 38.28316406 -33.58414063 37.19132812 -34.20703125 36.06640625 C-37.20998406 28.8575887 -34.60161318 23.28716274 -31.9375 16.375 C-31.60621094 15.45912109 -31.27492188 14.54324219 -30.93359375 13.59960938 C-28.75204631 7.86584411 -26.26825382 2.88907887 -21.5625 -1.1875 C-14.3829154 -3.58069487 -7.19065985 -1.53529066 0 0 Z " fill="#C91737" transform="translate(85.5625,59.1875)"/>
<path d="M0 0 C1.01449219 0.20496094 2.02898437 0.40992188 3.07421875 0.62109375 C10.03392456 2.13009698 14.08771908 3.67923223 18.3046875 9.66796875 C24.29749299 20.43187046 24.29749299 20.43187046 22.96484375 26.4453125 C22.72894531 27.20585937 22.49304688 27.96640625 22.25 28.75 C21.98316406 29.69617188 21.71632812 30.64234375 21.44140625 31.6171875 C16.06434758 49.15398465 16.06434758 49.15398465 9.625 53.9375 C4.39624965 56.66806963 -0.1303932 55.83978356 -5.75 54.75 C-6.46671875 54.61883789 -7.1834375 54.48767578 -7.921875 54.35253906 C-10.3284372 53.90529302 -12.7268548 53.42779927 -15.125 52.9375 C-16.28491455 52.70848999 -16.28491455 52.70848999 -17.46826172 52.47485352 C-23.49066403 51.14725013 -26.96669384 49.10244643 -30.76953125 44.0859375 C-31.36121094 43.10882813 -31.95289063 42.13171875 -32.5625 41.125 C-33.16707031 40.16335937 -33.77164063 39.20171875 -34.39453125 38.2109375 C-37.55934035 30.13018573 -35.5969737 22.46621966 -32.75 14.5625 C-32.43530762 13.68625977 -32.12061523 12.81001953 -31.79638672 11.90722656 C-29.73749511 6.52835956 -27.67942769 2.28881542 -23.1328125 -1.421875 C-15.68997074 -4.00856755 -7.42642523 -1.63860479 0 0 Z " fill="#C91737" transform="translate(164.75,133.25)"/>
<path d="M0 0 C4.95 0 9.9 0 15 0 C15 10.89 15 21.78 15 33 C15.66 33 16.32 33 17 33 C17.25652344 32.26007813 17.51304687 31.52015625 17.77734375 30.7578125 C19.05574541 27.87426115 20.41109344 26.16114111 22.5625 23.875 C25.68456749 20.4696233 28.69591261 17.01088749 31.625 13.4375 C32.39328125 12.52226563 33.1615625 11.60703125 33.953125 10.6640625 C36.03120736 8.1354265 36.03120736 8.1354265 37.234375 5.5234375 C38.53854263 2.99549614 39.74195269 1.72397618 42 0 C44.19335938 -0.45043945 44.19335938 -0.45043945 46.59375 -0.48828125 C47.88273193 -0.51305542 47.88273193 -0.51305542 49.19775391 -0.53833008 C53.14618535 -0.48180047 57.06088988 -0.28080785 61 0 C59.71076019 2.78823237 58.31380469 4.98996602 56.27734375 7.28515625 C55.47538574 8.1970874 55.47538574 8.1970874 54.65722656 9.12744141 C54.0897168 9.76601074 53.52220703 10.40458008 52.9375 11.0625 C51.76342367 12.40416152 50.5902524 13.74661558 49.41796875 15.08984375 C48.83966309 15.75097168 48.26135742 16.41209961 47.66552734 17.09326172 C45.34055168 19.75495329 43.0309668 22.425305 40.75 25.125 C40.04359375 25.95257813 39.3371875 26.78015625 38.609375 27.6328125 C36.77549475 30.33021889 36.19133949 31.74490941 36 35 C37.50371267 38.10072278 37.50371267 38.10072278 39.8125 41.2265625 C40.42230713 42.10905167 40.42230713 42.10905167 41.04443359 43.0093689 C42.34910141 44.89136218 43.67363792 46.75825031 45 48.625 C46.28916325 50.46742309 47.57406065 52.31276702 48.85864258 54.15838623 C49.69911418 55.36509573 50.54138495 56.57055421 51.38549805 57.77471924 C55.09357573 63.07919849 58.58692256 68.50036818 62 74 C55.50354152 75.83326712 49.2973167 77.0007348 43 74 C35.06724655 66.2073517 29.07622229 55.84318074 24 46 C24 45.34 24 44.68 24 44 C23.236875 44.763125 22.47375 45.52625 21.6875 46.3125 C19 49 19 49 17.36401367 50.34887695 C15.49223329 52.61464583 15.57248733 54.19193847 15.48828125 57.10546875 C15.45283203 58.08837891 15.41738281 59.07128906 15.38085938 60.08398438 C15.34702148 61.62022461 15.34702148 61.62022461 15.3125 63.1875 C15.27833984 64.22326172 15.24417969 65.25902344 15.20898438 66.32617188 C15.12648241 68.88373264 15.06156544 71.44184963 15 74 C10.05 74 5.1 74 0 74 C0 49.58 0 25.16 0 0 Z " fill="#040404" transform="translate(295,100)"/>
<path d="M0 0 C16.5 0 33 0 50 0 C50 4.29 50 8.58 50 13 C38.78 13 27.56 13 16 13 C16 18.94 16 24.88 16 31 C26.23 31 36.46 31 47 31 C47 34.96 47 38.92 47 43 C36.77 43 26.54 43 16 43 C16 48.94 16 54.88 16 61 C27.22 61 38.44 61 50 61 C50 65.29 50 69.58 50 74 C33.5 74 17 74 0 74 C0 49.58 0 25.16 0 0 Z " fill="#050505" transform="translate(232,100)"/>
<path d="M0 0 C16.17 0 32.34 0 49 0 C49 4.29 49 8.58 49 13 C38.11 13 27.22 13 16 13 C16 18.94 16 24.88 16 31 C25.9 31 35.8 31 46 31 C46 34.96 46 38.92 46 43 C36.1 43 26.2 43 16 43 C16 53.23 16 63.46 16 74 C10.72 74 5.44 74 0 74 C0 49.58 0 25.16 0 0 Z " fill="#060606" transform="translate(467,100)"/>
<path d="M0 0 C6.03062831 2.46873153 9.48473415 5.9049083 12.22143555 11.74365234 C13.57629534 15.67015413 13.53930839 19.44747048 13.4375 23.5625 C13.44458984 24.37396484 13.45167969 25.18542969 13.45898438 26.02148438 C13.37997557 33.55163154 11.37245884 39.47404234 6 45 C0.76515552 48.70269487 -4.80948091 48.83032298 -11 48 C-16.61058982 45.24571045 -19.59914143 41.10128786 -23 36 C-24.79702564 27.86730704 -25.6638926 17.53373752 -22.19140625 9.75 C-16.55823619 1.4757043 -9.70790986 -1.3191487 0 0 Z " fill="#FAFAFA" transform="translate(403,113)"/>
<path d="M0 0 C4.95 0 9.9 0 15 0 C15 24.42 15 48.84 15 74 C10.05 74 5.1 74 0 74 C0 49.58 0 25.16 0 0 Z " fill="#020202" transform="translate(527,100)"/>
<path d="M0 0 C3.81304532 2.28782719 5.64343367 4.19024999 8.125 7.875 C8.125 9.195 8.125 10.515 8.125 11.875 C5.155 11.875 2.185 11.875 -0.875 11.875 C-1.535 10.555 -2.195 9.235 -2.875 7.875 C-6.01371188 6.30564406 -8.41355822 6.52298897 -11.875 6.875 C-15.05828877 8.47217579 -15.05828877 8.47217579 -16.875 11.875 C-17.80515256 18.28862338 -17.78166441 23.5129116 -13.875 28.875 C-10.69678465 30.46410767 -7.33560271 30.27920974 -3.875 29.875 C-1.20068511 28.06336733 -0.91579641 26.99738923 0.125 23.875 C-2.515 23.875 -5.155 23.875 -7.875 23.875 C-7.875 21.565 -7.875 19.255 -7.875 16.875 C-2.265 16.875 3.345 16.875 9.125 16.875 C9.45117741 24.05090298 9.04747377 28.4811595 4.1875 34.125 C-0.82454628 38.37764533 -5.32524804 38.30561609 -11.7421875 38.18359375 C-15.87239052 37.7767533 -17.90378495 36.77193467 -20.875 33.875 C-21.82375 32.988125 -22.7725 32.10125 -23.75 31.1875 C-27.63752255 25.36254764 -27.06905112 16.56814977 -25.875 9.875 C-24.41963588 6.44862951 -22.69397145 4.27383628 -19.875 1.875 C-19.153125 1.215 -18.43125 0.555 -17.6875 -0.125 C-12.08923933 -2.11549268 -5.60058626 -2.06337388 0 0 Z " fill="#565FD6" transform="translate(483.875,192.125)"/>
<path d="M0 0 C4.83496094 1.765625 4.83496094 1.765625 6.3203125 3.875 C9.17887757 12.81212298 3.29270135 24.39461044 -0.25 32.4375 C-2.82971984 37.28424637 -5.68143777 40.33107185 -11 42 C-14.81280671 42.34545564 -18.25526105 41.72619938 -22 41 C-22.71671875 40.86883789 -23.4334375 40.73767578 -24.171875 40.60253906 C-26.5784372 40.15529302 -28.9768548 39.67779927 -31.375 39.1875 C-32.53491455 38.95848999 -32.53491455 38.95848999 -33.71826172 38.72485352 C-39.56702831 37.43552711 -43.26238526 35.45662773 -46.8125 30.4375 C-48 28 -48 28 -48 25 C-35.34903782 26.81279031 -35.34903782 26.81279031 -31 28.125 C-24.38631061 29.85581659 -16.94122198 30.65443737 -10.875 27.2421875 C-6.49025648 23.19511963 -5.28877681 17.22586988 -3.625 11.6875 C-3.27050781 10.56537109 -2.91601562 9.44324219 -2.55078125 8.28710938 C-1.68252126 5.52979723 -0.83307291 2.76810591 0 0 Z " fill="#9E0D2A" transform="translate(181,147)"/>
<path d="M0 0 C0.99 0 1.98 0 3 0 C5.99618302 4.91374016 6.13028901 7.42093799 5 13 C4.03685217 16.39882435 2.91360578 19.72765535 1.75 23.0625 C1.31880859 24.37057617 1.31880859 24.37057617 0.87890625 25.70507812 C-1.23466154 31.80119832 -3.54913053 36.94813167 -9.3125 40.375 C-16.75782144 42.1064701 -23.88043626 40.45646666 -31.1875 38.8125 C-32.15880859 38.61591797 -33.13011719 38.41933594 -34.13085938 38.21679688 C-41.3959329 36.59846316 -44.81240512 34.28139232 -49 28 C-49 27.01 -49 26.02 -49 25 C-43.36720559 25.49410477 -37.97199547 26.38918696 -32.4375 27.5625 C-22.95334486 29.69860907 -22.95334486 29.69860907 -13.75 27.5 C-7.85634413 22.14213102 -5.86855266 14.26451735 -3.1484375 6.953125 C-2.21192953 4.54496164 -1.20675951 2.28066476 0 0 Z " fill="#9E0D2A" transform="translate(104,74)"/>
<path d="M0 0 C4.4331235 2.13739883 7.12530646 4.4174158 9 9 C9 11.64 9 14.28 9 17 C2.4 17 -4.2 17 -11 17 C-10.67 18.65 -10.34 20.3 -10 22 C-8.54207116 22.05399736 -7.08357288 22.09279177 -5.625 22.125 C-4.81289063 22.14820313 -4.00078125 22.17140625 -3.1640625 22.1953125 C-0.78657757 22.21370051 -0.78657757 22.21370051 1 20 C4.625 19.875 4.625 19.875 8 20 C7.64426042 22.63247289 7.34776706 24.53051446 5.75 26.6875 C1.39242131 29.95568402 -2.62858342 30.47117689 -8 30 C-12.03753889 28.546486 -15.41787905 26.5187826 -18.07421875 23.06640625 C-20.21768086 18.28205411 -19.91180832 13.06210824 -19 8 C-14.59204142 -0.10582049 -8.67382813 -0.88208422 0 0 Z " fill="#5B64D7" transform="translate(367,201)"/>
<path d="M0 0 C2.8095629 1.43271744 4.77248267 2.77248267 7 5 C7.22705078 7.43017578 7.22705078 7.43017578 7.1953125 10.4453125 C7.18886719 11.52167969 7.18242188 12.59804687 7.17578125 13.70703125 C7.15902344 14.83496094 7.14226563 15.96289062 7.125 17.125 C7.11597656 18.26066406 7.10695313 19.39632812 7.09765625 20.56640625 C7.07403098 23.37781299 7.04109013 26.18880298 7 29 C4.36 29 1.72 29 -1 29 C-1.33 28.34 -1.66 27.68 -2 27 C-3.051875 27.7425 -3.051875 27.7425 -4.125 28.5 C-7.49395521 30.25771576 -9.25082097 30.54675527 -13 30 C-15.69990662 28.20006226 -17.5418865 26.916227 -19 24 C-19.34029556 20.32480796 -19.53890099 17.90633349 -17.625 14.6875 C-12.63710523 11.48099622 -6.83273972 11 -1 11 C-1.33 9.68 -1.66 8.36 -2 7 C-4.31 7 -6.62 7 -9 7 C-9.33 7.66 -9.66 8.32 -10 9 C-12.64 9 -15.28 9 -18 9 C-17.7365632 5.83875839 -17.15914751 4.20305028 -15.1875 1.6875 C-10.3366367 -0.8806041 -5.38153184 -0.79434845 0 0 Z " fill="#565FD6" transform="translate(531,201)"/>
<path d="M0 0 C2.64 0 5.28 0 8 0 C8.33 4.29 8.66 8.58 9 13 C9.99 12.01 10.98 11.02 12 10 C14.3046875 9.53125 14.3046875 9.53125 16.875 9.5 C17.71804688 9.4690625 18.56109375 9.438125 19.4296875 9.40625 C23.43571067 10.33165353 24.67911005 11.5825617 27 15 C27.60819472 19.12195653 27.47034064 23.1576488 27.3125 27.3125 C27.28994141 28.43462891 27.26738281 29.55675781 27.24414062 30.71289062 C27.18533776 33.47662536 27.10320401 36.23762554 27 39 C24.36 39 21.72 39 19 39 C18.97494385 38.39937744 18.9498877 37.79875488 18.92407227 37.17993164 C18.8084472 34.47388563 18.68557064 31.76821717 18.5625 29.0625 C18.52318359 28.11697266 18.48386719 27.17144531 18.44335938 26.19726562 C18.40146484 25.29814453 18.35957031 24.39902344 18.31640625 23.47265625 C18.27974854 22.64000244 18.24309082 21.80734863 18.20532227 20.94946289 C18.20632897 18.99661142 18.20632897 18.99661142 17 18 C14.66702567 17.95907063 12.33294775 17.95758277 10 18 C8.85345518 20.29308963 8.80270883 21.79909656 8.68359375 24.3515625 C8.64169922 25.20234375 8.59980469 26.053125 8.55664062 26.9296875 C8.51732422 27.81914062 8.47800781 28.70859375 8.4375 29.625 C8.39431641 30.5221875 8.35113281 31.419375 8.30664062 32.34375 C8.20043139 34.56234283 8.09838806 36.7810488 8 39 C5.36 39 2.72 39 0 39 C0 26.13 0 13.26 0 0 Z " fill="#545DD5" transform="translate(412,191)"/>
<path d="M0 0 C2.64 0 5.28 0 8 0 C8.33 0.99 8.66 1.98 9 3 C9.39445313 2.5153125 9.78890625 2.030625 10.1953125 1.53125 C12.51822187 -0.43970341 13.85746695 -0.46331267 16.875 -0.5 C17.71804688 -0.5309375 18.56109375 -0.561875 19.4296875 -0.59375 C23.43571067 0.33165353 24.67911005 1.5825617 27 5 C27.60819472 9.12195653 27.47034064 13.1576488 27.3125 17.3125 C27.28994141 18.43462891 27.26738281 19.55675781 27.24414062 20.71289062 C27.18533776 23.47662536 27.10320401 26.23762554 27 29 C24.36 29 21.72 29 19 29 C18.97494385 28.39937744 18.9498877 27.79875488 18.92407227 27.17993164 C18.8084472 24.47388563 18.68557064 21.76821717 18.5625 19.0625 C18.52318359 18.11697266 18.48386719 17.17144531 18.44335938 16.19726562 C18.40146484 15.29814453 18.35957031 14.39902344 18.31640625 13.47265625 C18.27974854 12.64000244 18.24309082 11.80734863 18.20532227 10.94946289 C18.20632897 8.99661142 18.20632897 8.99661142 17 8 C14.66702567 7.95907063 12.33294775 7.95758277 10 8 C8.85345518 10.29308963 8.80270883 11.79909656 8.68359375 14.3515625 C8.64169922 15.20234375 8.59980469 16.053125 8.55664062 16.9296875 C8.51732422 17.81914062 8.47800781 18.70859375 8.4375 19.625 C8.39431641 20.5221875 8.35113281 21.419375 8.30664062 22.34375 C8.20043139 24.56234283 8.09838806 26.7810488 8 29 C5.36 29 2.72 29 0 29 C0 19.43 0 9.86 0 0 Z " fill="#545DD5" transform="translate(544,201)"/>
<path d="M0 0 C1.65515625 0.00193359 1.65515625 0.00193359 3.34375 0.00390625 C6.81680195 0.48102106 8.74476214 1.28951857 11.5 3.4375 C12.3125 6.625 12.3125 6.625 12.5 9.4375 C9.1875 9.625 9.1875 9.625 5.5 9.4375 C4.47980427 8.4581121 3.47850195 7.45854551 2.5 6.4375 C-0.62549017 6.18701364 -0.62549017 6.18701364 -3.5 6.4375 C-3.5 7.7575 -3.5 9.0775 -3.5 10.4375 C-2.16195312 10.69273437 -2.16195312 10.69273437 -0.796875 10.953125 C0.37359375 11.19546875 1.5440625 11.4378125 2.75 11.6875 C4.49023438 12.03554687 4.49023438 12.03554687 6.265625 12.390625 C9.7611627 13.52203092 11.26631487 14.55864853 13.5 17.4375 C14.14192296 21.2087974 13.8255007 22.88665266 11.875 26.1875 C8.19437257 29.6744102 4.97108141 30.30615345 0 30.75 C-4.82047017 30.31960088 -8.04640331 28.98800314 -11.375 25.4375 C-12.5 23.4375 -12.5 23.4375 -12.5 20.4375 C-7.07197861 20.17054813 -7.07197861 20.17054813 -4.5 20.4375 C-3.4805881 21.41770375 -2.47753644 22.41553008 -1.5 23.4375 C1.64921909 23.20466851 1.64921909 23.20466851 4.5 22.4375 C4.5 21.7775 4.5 21.1175 4.5 20.4375 C3.68015625 20.19515625 2.8603125 19.9528125 2.015625 19.703125 C0.39914062 19.20039063 0.39914062 19.20039063 -1.25 18.6875 C-2.85101562 18.20023438 -2.85101562 18.20023438 -4.484375 17.703125 C-7.69942421 16.35380383 -9.36507206 15.17588738 -11.5 12.4375 C-12.06640625 10.4375 -12.06640625 10.4375 -12.0625 8.4375 C-12.08441406 7.7775 -12.10632813 7.1175 -12.12890625 6.4375 C-10.33564329 0.73470101 -5.3001521 -0.0928765 0 0 Z " fill="#575FD6" transform="translate(609.5,200.5625)"/>
<path d="M0 0 C10.56 0 21.12 0 32 0 C32 2.31 32 4.62 32 7 C28.04 7 24.08 7 20 7 C20 17.56 20 28.12 20 39 C17.36 39 14.72 39 12 39 C12 28.44 12 17.88 12 7 C8.04 7 4.08 7 0 7 C0 4.69 0 2.38 0 0 Z " fill="#535CD5" transform="translate(312,191)"/>
<path d="M0 0 C2.51625 -0.0825 5.0325 -0.165 7.625 -0.25 C8.79603271 -0.30462402 8.79603271 -0.30462402 9.99072266 -0.36035156 C15.1007707 -0.4407839 17.951248 0.63642141 22 4 C23.85127843 7.70255686 23.4638553 11.95874013 23 16 C21.39438208 18.80983137 20.41413387 20.47303502 17.34375 21.6171875 C13.9810338 22.16643115 10.64531549 22.10389735 7.25 22.0625 C4.8575 22.041875 2.465 22.02125 0 22 C0 14.74 0 7.48 0 0 Z " fill="#FBFBFB" transform="translate(571,113)"/>
<path d="M0 0 C3.01955362 1.49721627 5.09947173 3.21125233 7 6 C7.4375 8.875 7.4375 8.875 7 11 C4.36 11 1.72 11 -1 11 C-1.66 9.68 -2.32 8.36 -3 7 C-5.91634129 6.7497843 -5.91634129 6.7497843 -9 7 C-11.46934085 10.70401128 -11.44928433 13.70587865 -11 18 C-10.13734032 20.40557853 -10.13734032 20.40557853 -9 22 C-7.02 22 -5.04 22 -3 22 C-2.34 20.68 -1.68 19.36 -1 18 C1.64 18 4.28 18 7 18 C6.81625695 21.95047551 6.19246223 23.76072264 3.6875 26.875 C-0.23315194 29.79887602 -4.41077097 29.69006769 -9.1484375 29.49609375 C-13.47726914 28.74299564 -15.1124289 27.26751466 -18 24 C-21.26418779 19.10371831 -20.80996543 13.71094271 -20 8 C-15.53197355 -0.33300638 -8.87655864 -1.19861811 0 0 Z " fill="#555ED5" transform="translate(400,201)"/>
<path d="M0 0 C19.14 0 38.28 0 58 0 C58 2.31 58 4.62 58 7 C38.86 7 19.72 7 0 7 C0 4.69 0 2.38 0 0 Z " fill="#CB1D3D" transform="translate(643,207)"/>
<path d="M0 0 C19.14 0 38.28 0 58 0 C58 2.31 58 4.62 58 7 C38.86 7 19.72 7 0 7 C0 4.69 0 2.38 0 0 Z " fill="#CB1D3D" transform="translate(234,207)"/>
<path d="M0 0 C2.97 0 5.94 0 9 0 C9 2.31 9 4.62 9 7 C10.65 7 12.3 7 14 7 C14 8.98 14 10.96 14 13 C12.35 13 10.7 13 9 13 C9.33 18.28 9.66 23.56 10 29 C11.32 29.33 12.64 29.66 14 30 C14 31.98 14 33.96 14 36 C5.8372093 36.62790698 5.8372093 36.62790698 2.5 34.125 C-0.4501728 29.94558854 -0.11483801 26.33503303 -0.0625 21.375 C-0.05798828 20.57320312 -0.05347656 19.77140625 -0.04882812 18.9453125 C-0.03703168 16.96350994 -0.01909605 14.98174567 0 13 C-1.32 13 -2.64 13 -4 13 C-4 11.02 -4 9.04 -4 7 C-2.68 7 -1.36 7 0 7 C0 4.69 0 2.38 0 0 Z " fill="#5961D6" transform="translate(579,194)"/>
<path d="M0 0 C2.64 0 5.28 0 8 0 C8 9.57 8 19.14 8 29 C5.36 29 2.72 29 0 29 C0 19.43 0 9.86 0 0 Z " fill="#535CD5" transform="translate(499,201)"/>
<path d="M0 0 C-0.75 5.75 -0.75 5.75 -3 8 C-6.0625 8.1875 -6.0625 8.1875 -9 8 C-10 7 -10 7 -10.0625 4.4375 C-10.041875 3.633125 -10.02125 2.82875 -10 2 C-6.38026598 0.68373308 -3.90432869 0 0 0 Z " fill="#F2F3FB" transform="translate(530,217)"/>
<path d="M0 0 C0.625 2.375 0.625 2.375 1 5 C-1 7 -1 7 -3.5625 7.1875 C-6 7 -6 7 -7 6 C-7.04080783 4.00041636 -7.04254356 1.99954746 -7 0 C-4.3333581 -1.33332095 -2.83319697 -0.67102033 0 0 Z " fill="#575FD6" transform="translate(506,190)"/>
<path d="M0 0 C0.66 0.33 1.32 0.66 2 1 C2 2.32 2 3.64 2 5 C-1.63 5 -5.26 5 -9 5 C-8.67 3.68 -8.34 2.36 -8 1 C-5.26094655 -0.36952673 -3.02912668 -0.12621361 0 0 Z " fill="#F7F7FD" transform="translate(365,207)"/>
</svg>
