<?xml version="1.0" encoding="UTF-8"?>
<svg version="1.1" xmlns="http://www.w3.org/2000/svg" width="500" height="259">
<path d="M0 0 C165 0 330 0 500 0 C500 85.47 500 170.94 500 259 C335 259 170 259 0 259 C0 173.53 0 88.06 0 0 Z " fill="#FEFEFE" transform="translate(0,0)"/>
<path d="M0 0 C0.83439606 0.16808167 1.66879211 0.33616333 2.5284729 0.50933838 C4.28564624 0.86567946 6.04209991 1.22558597 7.79785156 1.58886719 C10.4591912 2.13704688 13.12376078 2.66677963 15.7890625 3.1953125 C17.50543707 3.54575659 19.22159081 3.8972843 20.9375 4.25 C21.72216644 4.40434509 22.50683289 4.55869019 23.3152771 4.7177124 C30.5927532 6.25348905 38.33038588 8.29644125 42.90771484 14.55664062 C43.49866943 15.46446289 43.49866943 15.46446289 44.1015625 16.390625 C44.59736816 17.14537109 45.09317383 17.90011719 45.60400391 18.67773438 C47.26657985 21.300361 48.84546305 23.96085486 50.4140625 26.640625 C50.96384766 27.53136719 51.51363281 28.42210938 52.08007812 29.33984375 C52.59892578 30.22800781 53.11777344 31.11617187 53.65234375 32.03125 C54.12325439 32.82047852 54.59416504 33.60970703 55.0793457 34.42285156 C57.73121438 42.12194772 55.92204284 49.41471982 53.25 56.8359375 C52.80522812 58.1180159 52.80522812 58.1180159 52.35147095 59.42599487 C51.72516151 61.21847778 51.09113284 63.00828077 50.44970703 64.79541016 C49.47907383 67.50860511 48.54082031 70.23150027 47.60546875 72.95703125 C46.98888609 74.70900561 46.3704572 76.46033155 45.75 78.2109375 C45.4747348 79.01322784 45.1994696 79.81551819 44.91586304 80.64212036 C42.41491364 87.50539803 38.91528597 93.99601272 32.4765625 97.828125 C20.78906983 103.23900124 7.91010218 99.72689708 -4.13671875 97.19238281 C-6.78559334 96.63808128 -9.43894914 96.11103071 -12.09375 95.5859375 C-13.79720759 95.23599008 -15.50034558 94.88448252 -17.203125 94.53125 C-18.37982254 94.29973236 -18.37982254 94.29973236 -19.58029175 94.0635376 C-27.16610802 92.4283446 -32.46242221 88.82696094 -36.8984375 82.390625 C-38.92994758 79.05445598 -40.79999705 75.64341646 -42.6484375 72.203125 C-43.14214844 71.30142578 -43.63585937 70.39972656 -44.14453125 69.47070312 C-47.96540201 62.44134774 -50.16151167 57.28627843 -48.05981445 49.14013672 C-47.67269287 48.04459473 -47.28557129 46.94905273 -46.88671875 45.8203125 C-46.45810547 44.593125 -46.02949219 43.3659375 -45.58789062 42.1015625 C-45.12900625 40.82288078 -44.67002156 39.54423505 -44.2109375 38.265625 C-43.77587891 37.02296875 -43.34082031 35.7803125 -42.89257812 34.5 C-40.73739602 28.38247568 -38.51665831 22.28901873 -36.2421875 16.21484375 C-35.85869141 15.18963623 -35.47519531 14.16442871 -35.08007812 13.1081543 C-32.25727077 6.6162806 -28.17192934 3.04705697 -21.828125 0.1171875 C-14.4811628 -2.64907762 -7.49816225 -1.54430529 0 0 Z " fill="#4E57D4" transform="translate(197.8984375,15.609375)"/>
<path d="M0 0 C0.9014827 0.19027771 1.80296539 0.38055542 2.73176575 0.57659912 C4.62101228 0.97843714 6.50917104 1.3854214 8.39624023 1.79736328 C11.26936404 2.42183866 14.14680209 3.02237872 17.02539062 3.62109375 C18.87140076 4.01679962 20.7171152 4.41388803 22.5625 4.8125 C23.41369919 4.98871887 24.26489838 5.16493774 25.14189148 5.34649658 C31.57669579 6.77895699 37.0524448 8.59502506 41.26953125 13.94921875 C41.86765625 14.99207031 42.46578125 16.03492188 43.08203125 17.109375 C43.40816406 17.67567627 43.73429687 18.24197754 44.0703125 18.82543945 C44.74734525 20.00877637 45.41658578 21.19660415 46.078125 22.38867188 C47.06161399 24.13560854 48.1026664 25.84973733 49.14453125 27.5625 C50.10359375 29.19445312 50.10359375 29.19445312 51.08203125 30.859375 C51.65953125 31.83261719 52.23703125 32.80585938 52.83203125 33.80859375 C55.73574303 41.62139325 53.94765607 49.06092027 51.1953125 56.65234375 C50.89642624 57.50943436 50.59753998 58.36652496 50.28959656 59.24958801 C49.65899792 61.04624596 49.02077595 62.84024506 48.37524414 64.6315918 C47.39562591 67.35633028 46.44526047 70.09002238 45.49804688 72.82617188 C44.87801296 74.58133449 44.25632353 76.33591334 43.6328125 78.08984375 C43.35238602 78.89729538 43.07195953 79.70474701 42.78303528 80.53666687 C39.54877521 89.41082394 35.18868726 95.26394357 26.45703125 99.421875 C15.19341778 101.92490022 4.07110167 99.0990629 -6.95581055 96.65625 C-9.73732777 96.04536861 -12.52486667 95.47118755 -15.31445312 94.8984375 C-17.10594763 94.51001466 -18.89698218 94.11946298 -20.6875 93.7265625 C-21.5105513 93.5606662 -22.3336026 93.3947699 -23.18159485 93.22384644 C-30.24030883 91.6006319 -34.53503188 88.290792 -38.90600586 82.56982422 C-40.58367055 79.74347143 -42.23736234 76.90782089 -43.85546875 74.046875 C-44.44392578 73.0775 -45.03238281 72.108125 -45.63867188 71.109375 C-50.29887423 62.94725519 -51.35501482 56.31679281 -49.20874023 47.13916016 C-48.29710658 44.06279835 -47.26501685 41.06181214 -46.16796875 38.046875 C-45.64589844 36.53673828 -45.64589844 36.53673828 -45.11328125 34.99609375 C-43.14933766 29.373396 -41.02773523 23.82470852 -38.78393555 18.30810547 C-38.23404823 16.95160306 -37.69857151 15.5890988 -37.18286133 14.21923828 C-34.15018214 6.45886839 -30.04293267 2.86891454 -22.90625 -0.9453125 C-15.37732386 -3.16954428 -7.51335505 -1.63860679 0 0 Z " fill="#4E57D4" transform="translate(80.91796875,132.828125)"/>
<path d="M0 0 C8.0549904 5.52189026 12.8247398 12.49754753 15 22 C16.32280407 36.07486889 15.73789416 49.0394488 6.49609375 60.35546875 C0.863262 66.54717153 -6.70713061 70.58870696 -15.06640625 71.23828125 C-25.49705949 71.45971411 -33.56993426 70.12771586 -41.8125 63.4375 C-50.24058872 55.3574293 -53.05948609 46.31907769 -53.39477539 34.99047852 C-53.56122485 23.09647539 -53.15856571 14.81638672 -44.87890625 5.65234375 C-32.18057973 -6.47378781 -15.49303234 -8.9045585 0 0 Z " fill="#050505" transform="translate(438,104)"/>
<path d="M0 0 C14.84643735 3.63039628 14.84643735 3.63039628 18.61328125 7.78637695 C19.061875 8.54176758 19.51046875 9.2971582 19.97265625 10.07543945 C20.45476562 10.8746582 20.936875 11.67387695 21.43359375 12.49731445 C22.07167969 13.58786133 22.07167969 13.58786133 22.72265625 14.70043945 C23.65078125 15.99981445 23.65078125 15.99981445 24.59765625 17.32543945 C27.51660818 23.4876713 25.03274866 29.74641866 22.91015625 35.76293945 C22.64912109 36.53959961 22.38808594 37.31625977 22.11914062 38.11645508 C18.03602803 50.02301305 18.03602803 50.02301305 13.59765625 54.07543945 C13.07945312 54.57817383 12.56125 55.0809082 12.02734375 55.59887695 C5.66890105 58.63799702 -2.3312266 56.34524366 -8.90234375 54.88793945 C-9.70929688 54.72229492 -10.51625 54.55665039 -11.34765625 54.38598633 C-23.03866333 51.87128107 -23.03866333 51.87128107 -27.33984375 47.70043945 C-36.04155683 34.22681919 -36.04155683 34.22681919 -35.27734375 27.70043945 C-34.3069998 23.97916289 -33.07009951 20.38313797 -31.77734375 16.76293945 C-31.4628125 15.79936523 -31.14828125 14.83579102 -30.82421875 13.84301758 C-25.21597556 -1.93555894 -15.11770743 -3.45869568 0 0 Z " fill="#CA1738" transform="translate(189.27734375,132.299560546875)"/>
<path d="M0 0 C1.010625 0.19658203 2.02125 0.39316406 3.0625 0.59570312 C10.49263424 2.18021338 14.50347452 4.12225867 19.23828125 10.20703125 C19.71652344 11.00496094 20.19476563 11.80289063 20.6875 12.625 C21.42419922 13.81029297 21.42419922 13.81029297 22.17578125 15.01953125 C25.52177858 22.81232635 24.05977321 28.3199802 21.1875 35.9375 C20.88263672 36.80503906 20.57777344 37.67257813 20.26367188 38.56640625 C18.05555695 44.64913793 15.49371678 50.58399484 10.375 54.8125 C2.88532148 57.30905951 -5.3189851 55.61067431 -12.875 54.0625 C-14.16277344 53.82660156 -14.16277344 53.82660156 -15.4765625 53.5859375 C-22.24292848 52.2326643 -26.76171354 50.37062405 -30.9609375 44.60546875 C-31.65525089 43.41203574 -32.33485952 42.20993453 -33 41 C-33.53173828 40.11344727 -33.53173828 40.11344727 -34.07421875 39.20898438 C-36.53393909 34.85461458 -37.23374055 31.75526515 -36.625 26.8125 C-35.60611257 23.20309127 -34.30549873 19.73999316 -32.9375 16.25 C-32.59783203 15.33025391 -32.25816406 14.41050781 -31.90820312 13.46289062 C-29.57256994 7.39024434 -27.11132541 2.45729859 -21.8125 -1.5625 C-14.6726893 -3.60244591 -7.04997761 -1.51782937 0 0 Z " fill="#CA1737" transform="translate(112.625,59.1875)"/>
<path d="M0 0 C4.95 0 9.9 0 15 0 C15 10.89 15 21.78 15 33 C15.66 33 16.32 33 17 33 C17.25652344 32.26007813 17.51304687 31.52015625 17.77734375 30.7578125 C19.05574541 27.87426115 20.41109344 26.16114111 22.5625 23.875 C25.68456749 20.4696233 28.69591261 17.01088749 31.625 13.4375 C32.39328125 12.52226563 33.1615625 11.60703125 33.953125 10.6640625 C36.03120736 8.1354265 36.03120736 8.1354265 37.234375 5.5234375 C38.53854263 2.99549614 39.74195269 1.72397618 42 0 C44.19335938 -0.45043945 44.19335938 -0.45043945 46.59375 -0.48828125 C47.88273193 -0.51305542 47.88273193 -0.51305542 49.19775391 -0.53833008 C53.14618535 -0.48180047 57.06088988 -0.28080785 61 0 C59.71076019 2.78823237 58.31380469 4.98996602 56.27734375 7.28515625 C55.47538574 8.1970874 55.47538574 8.1970874 54.65722656 9.12744141 C54.0897168 9.76601074 53.52220703 10.40458008 52.9375 11.0625 C51.76342367 12.40416152 50.5902524 13.74661558 49.41796875 15.08984375 C48.83966309 15.75097168 48.26135742 16.41209961 47.66552734 17.09326172 C45.34055168 19.75495329 43.0309668 22.425305 40.75 25.125 C40.04359375 25.95257813 39.3371875 26.78015625 38.609375 27.6328125 C36.77549475 30.33021889 36.19133949 31.74490941 36 35 C37.50371267 38.10072278 37.50371267 38.10072278 39.8125 41.2265625 C40.42230713 42.10905167 40.42230713 42.10905167 41.04443359 43.0093689 C42.34910141 44.89136218 43.67363792 46.75825031 45 48.625 C46.28916325 50.46742309 47.57406065 52.31276702 48.85864258 54.15838623 C49.69911418 55.36509573 50.54138495 56.57055421 51.38549805 57.77471924 C55.09357573 63.07919849 58.58692256 68.50036818 62 74 C55.50354152 75.83326712 49.2973167 77.0007348 43 74 C35.06724655 66.2073517 29.07622229 55.84318074 24 46 C24 45.34 24 44.68 24 44 C23.236875 44.763125 22.47375 45.52625 21.6875 46.3125 C19 49 19 49 17.36401367 50.34887695 C15.49223329 52.61464583 15.57248733 54.19193847 15.48828125 57.10546875 C15.45283203 58.08837891 15.41738281 59.07128906 15.38085938 60.08398438 C15.34702148 61.62022461 15.34702148 61.62022461 15.3125 63.1875 C15.27833984 64.22326172 15.24417969 65.25902344 15.20898438 66.32617188 C15.12648241 68.88373264 15.06156544 71.44184963 15 74 C10.05 74 5.1 74 0 74 C0 49.58 0 25.16 0 0 Z " fill="#040404" transform="translate(316,100)"/>
<path d="M0 0 C16.5 0 33 0 50 0 C50 4.29 50 8.58 50 13 C38.45 13 26.9 13 15 13 C15 18.94 15 24.88 15 31 C25.56 31 36.12 31 47 31 C47 35.29 47 39.58 47 44 C36.77 44 26.54 44 16 44 C16 49.61 16 55.22 16 61 C27.22 61 38.44 61 50 61 C50 65.29 50 69.58 50 74 C33.5 74 17 74 0 74 C0 49.58 0 25.16 0 0 Z " fill="#060606" transform="translate(254,100)"/>
<path d="M0 0 C5.91088278 2.75544912 9.09656928 6.31395618 11.453125 12.40625 C14.05882106 21.03940783 13.4319746 30.06940145 9.703125 38.28125 C7.32377505 42.07136496 4.93104023 44.63938522 0.953125 46.71875 C-4.95975451 47.74213299 -10.11193632 48.35310671 -15.609375 45.65625 C-22.23460683 39.80139396 -24.82900131 34.90293231 -25.55078125 26.23046875 C-25.84498179 18.15418932 -25.21845881 10.56092944 -19.54296875 4.3671875 C-13.6195212 -0.85138216 -7.79413188 -2.43898004 0 0 Z " fill="#F9F9F9" transform="translate(425.296875,113.71875)"/>
<path d="M0 0 C0.99 0 1.98 0 3 0 C5.52708635 3.79062953 5.35030924 5.48237567 5 10 C4.25169987 13.09190052 3.24527713 16.06421446 2.1875 19.0625 C1.92646484 19.83916016 1.66542969 20.61582031 1.39648438 21.41601562 C-2.68662822 33.32257359 -2.68662822 33.32257359 -7.125 37.375 C-7.64320313 37.87773437 -8.16140625 38.38046875 -8.6953125 38.8984375 C-15.0537552 41.93755757 -23.05388285 39.64480421 -29.625 38.1875 C-30.43195313 38.02185547 -31.23890625 37.85621094 -32.0703125 37.68554688 C-38.04717016 36.39994032 -43.93244916 35.12343059 -48.3125 30.625 C-49.91865397 28.12653827 -50.94219787 25.76229553 -52 23 C-50.49987666 23.27014933 -48.99991422 23.54119199 -47.5 23.8125 C-46.50484375 23.99167969 -45.5096875 24.17085937 -44.484375 24.35546875 C-41.96949764 24.82066467 -39.46120866 25.30165129 -36.953125 25.80078125 C-35.90995117 26.00513794 -35.90995117 26.00513794 -34.84570312 26.21362305 C-33.47877112 26.48194556 -32.11281665 26.75531177 -30.74804688 27.03442383 C-25.19583381 28.11471553 -20.14495 28.943778 -14.875 26.625 C-9.04865068 21.30528976 -6.66915315 13.49938069 -3.9921875 6.2265625 C-2.91322397 3.80526638 -1.79405863 1.9547206 0 0 Z " fill="#9D0B29" transform="translate(210,149)"/>
<path d="M0 0 C0.66 0 1.32 0 2 0 C4.13802701 2.13802701 5.04930251 3.20568471 6 6 C5.95468004 15.97039152 2.23964989 28.58625835 -4.125 36.3125 C-8.40964066 40.31770757 -11.66633537 40.20325343 -17.23632812 40.14257812 C-21.6623395 39.91423973 -25.91477782 39.13825653 -30.25 38.25 C-31.53777344 38.01410156 -31.53777344 38.01410156 -32.8515625 37.7734375 C-39.21208895 36.50133221 -43.90911746 34.85753948 -47.875 29.4375 C-49 27 -49 27 -49 24 C-36.67604996 25.81575439 -36.67604996 25.81575439 -30.8125 27.125 C-24.86601958 28.33560269 -18.87607217 29.12541955 -13.125 26.875 C-8.1748514 22.50722182 -5.96235462 16.87118121 -3.8125 10.8125 C-3.55275391 10.10158203 -3.29300781 9.39066406 -3.02539062 8.65820312 C-1.97900317 5.78401743 -0.96726541 2.90179624 0 0 Z " fill="#9D0B28" transform="translate(130,75)"/>
<path d="M0 0 C2 1.375 2 1.375 3 3 C3 3.66 3 4.32 3 5 C-0.3 4.67 -3.6 4.34 -7 4 C-7 6.31 -7 8.62 -7 11 C-5.35 11.33 -3.7 11.66 -2 12 C-1.67 11.34 -1.34 10.68 -1 10 C-1.99 10 -2.98 10 -4 10 C-4 9.01 -4 8.02 -4 7 C-1.69 7 0.62 7 3 7 C2.6875 10.375 2.6875 10.375 2 14 C-1.73255448 16.48836965 -3.58440935 16.54226552 -8 16 C-11.22456813 13.27151928 -11.91290117 11.62057913 -12.5 7.4375 C-12 4 -12 4 -10.5 1.5625 C-6.75107996 -0.78057502 -4.38964238 -0.48773804 0 0 Z " fill="#5F67D8" transform="translate(361,189)"/>
<path d="M0 0 C2.75 0.125 2.75 0.125 5.1875 0.625 C8.29635312 1.31651036 8.29635312 1.31651036 13.75 1.125 C13.75 5.085 13.75 9.045 13.75 13.125 C12.1 13.125 10.45 13.125 8.75 13.125 C8.42 10.155 8.09 7.185 7.75 4.125 C5.44 4.125 3.13 4.125 0.75 4.125 C0.75 5.115 0.75 6.105 0.75 7.125 C1.74 7.125 2.73 7.125 3.75 7.125 C3.42 8.115 3.09 9.105 2.75 10.125 C-2.125 9.25 -2.125 9.25 -3.25 8.125 C-3.375 4.625 -3.375 4.625 -3.25 1.125 C-2.25 0.125 -2.25 0.125 0 0 Z " fill="#F6F7FD" transform="translate(356.25,191.875)"/>
<path d="M0 0 C0.99 0 1.98 0 3 0 C3 1.65 3 3.3 3 5 C4.11375 4.79375 5.2275 4.5875 6.375 4.375 C7.57125 4.25125 8.7675 4.1275 10 4 C12 6 12 6 12.1953125 8.3828125 C12.16050781 9.74019531 12.16050781 9.74019531 12.125 11.125 C12.10695313 12.03507813 12.08890625 12.94515625 12.0703125 13.8828125 C12.04710937 14.58148438 12.02390625 15.28015625 12 16 C10.68 16 9.36 16 8 16 C8 13.03 8 10.06 8 7 C6.68 7 5.36 7 4 7 C4 9.97 4 12.94 4 16 C2.68 16 1.36 16 0 16 C0 10.72 0 5.44 0 0 Z " fill="#646CD9" transform="translate(330,189)"/>
<path d="M0 0 C3.5625 0.3125 3.5625 0.3125 5.5 1.5625 C6.5625 3.3125 6.5625 3.3125 6.5625 7.3125 C3.9225 7.3125 1.2825 7.3125 -1.4375 7.3125 C-1.1075 7.9725 -0.7775 8.6325 -0.4375 9.3125 C1.5425 8.9825 3.5225 8.6525 5.5625 8.3125 C5.5625 9.3025 5.5625 10.2925 5.5625 11.3125 C2.76379973 12.71185013 0.65751208 12.56515405 -2.4375 12.3125 C-4.3125 11.25 -4.3125 11.25 -5.4375 9.3125 C-5.75 5.75 -5.75 5.75 -5.4375 2.3125 C-3.4375 0.3125 -3.4375 0.3125 0 0 Z " fill="#747BDD" transform="translate(308.4375,192.6875)"/>
<path d="M0 0 C6.75 -0.125 6.75 -0.125 9 1 C9 4.63 9 8.26 9 12 C0.25 12.125 0.25 12.125 -2 11 C-1.125 6.125 -1.125 6.125 0 5 C1.66617115 4.95936168 3.33388095 4.957279 5 5 C5 4.01 5 3.02 5 2 C3.02 2.33 1.04 2.66 -1 3 C-0.67 2.01 -0.34 1.02 0 0 Z " fill="#5B63D7" transform="translate(374,193)"/>
<path d="M0 0 C3.3 0 6.6 0 10 0 C11.26237731 2.52475462 11.09856404 4.31200466 11.0625 7.125 C11.05347656 8.03507813 11.04445313 8.94515625 11.03515625 9.8828125 C11.02355469 10.58148438 11.01195312 11.28015625 11 12 C9.68 12 8.36 12 7 12 C7 9.03 7 6.06 7 3 C5.68 3 4.36 3 3 3 C3 5.97 3 8.94 3 12 C2.01 12 1.02 12 0 12 C0 8.04 0 4.08 0 0 Z " fill="#656DD9" transform="translate(386,193)"/>
<path d="M0 0 C0.33 0.99 0.66 1.98 1 3 C-1.97 2.505 -1.97 2.505 -5 2 C-4.15433261 4.27173092 -4.15433261 4.27173092 -1.5 4.875 C1 6 1 6 1.9375 8 C1.958125 8.66 1.97875 9.32 2 10 C0 12 0 12 -3.5 12.1875 C-7 12 -7 12 -9 11 C-9 10.01 -9 9.02 -9 8 C-6.61435923 8.57584432 -4.33317216 9.22227595 -2 10 C-2.33 9.34 -2.66 8.68 -3 8 C-4.2375 7.5978125 -4.2375 7.5978125 -5.5 7.1875 C-6.325 6.795625 -7.15 6.40375 -8 6 C-8.8125 3.375 -8.8125 3.375 -9 1 C-6.04335481 -0.4783226 -3.25770263 -0.06032783 0 0 Z " fill="#5F68D8" transform="translate(417,193)"/>
<path d="M0 0 C1.670625 0.061875 1.670625 0.061875 3.375 0.125 C4.035 1.445 4.695 2.765 5.375 4.125 C2.735 3.795 0.095 3.465 -2.625 3.125 C-2.295 4.775 -1.965 6.425 -1.625 8.125 C1.84 7.63 1.84 7.63 5.375 7.125 C4.5 11 4.5 11 3.375 12.125 C-0.0625 12.3125 -0.0625 12.3125 -3.625 12.125 C-5.625 10.125 -5.625 10.125 -5.890625 8.25 C-5.88546875 7.54875 -5.8803125 6.8475 -5.875 6.125 C-5.88015625 5.42375 -5.8853125 4.7225 -5.890625 4 C-5.34417976 0.14273948 -3.61576724 0.12468163 0 0 Z " fill="#636BD9" transform="translate(322.625,192.875)"/>
<path d="M0 0 C8.25 0 16.5 0 25 0 C25 0.99 25 1.98 25 3 C16.75 3 8.5 3 0 3 C0 2.01 0 1.02 0 0 Z " fill="#D4425C" transform="translate(427,195)"/>
<path d="M0 0 C7.92 0 15.84 0 24 0 C24 0.99 24 1.98 24 3 C16.08 3 8.16 3 0 3 C0 2.01 0 1.02 0 0 Z " fill="#D4405B" transform="translate(255,195)"/>
<path d="M0 0 C1.32 0 2.64 0 4 0 C4 0.99 4 1.98 4 3 C4.66 3 5.32 3 6 3 C6 3.66 6 4.32 6 5 C5.34 5 4.68 5 4 5 C4 7.31 4 9.62 4 12 C4.66 12 5.32 12 6 12 C6 12.99 6 13.98 6 15 C1.125 14.125 1.125 14.125 0 13 C-0.26087055 11.3826026 -0.45964436 9.75493414 -0.625 8.125 C-0.72039062 7.24070313 -0.81578125 6.35640625 -0.9140625 5.4453125 C-1 3 -1 3 0 0 Z " fill="#6169D8" transform="translate(400,190)"/>
<path d="M0 0 C4.29 0 8.58 0 13 0 C13 0.66 13 1.32 13 2 C11.35 2 9.7 2 8 2 C8 6.62 8 11.24 8 16 C7.01 16 6.02 16 5 16 C5 11.38 5 6.76 5 2 C3.35 2 1.7 2 0 2 C0 1.34 0 0.68 0 0 Z " fill="#515AD4" transform="translate(288,189)"/>
<path d="M0 0 C0.33 0 0.66 0 1 0 C1 5.28 1 10.56 1 16 C-1 13 -1 13 -1 11 C-1.5775 11.350625 -2.155 11.70125 -2.75 12.0625 C-5.35801776 13.14917407 -6.39417629 12.93065133 -9 12 C-9 10.35 -9 8.7 -9 7 C-6.36 7 -3.72 7 -1 7 C-0.67 4.69 -0.34 2.38 0 0 Z " fill="#F0F1FB" transform="translate(329,189)"/>
<path d="M0 0 C2 2 2 2 2.8125 4 C4.40298924 6.67871871 6.09744918 7.083405 9 8 C9 8.66 9 9.32 9 10 C6.61435923 9.42415568 4.33317216 8.77772405 2 8 C1.34 9.32 0.68 10.64 0 12 C0 11.01 0 10.02 0 9 C-0.66 9 -1.32 9 -2 9 C-2 6.69 -2 4.38 -2 2 C-1.34 2 -0.68 2 0 2 C0 1.34 0 0.68 0 0 Z " fill="#ECEDFA" transform="translate(406,193)"/>
<path d="M0 0 C1.32 0 2.64 0 4 0 C4 3.96 4 7.92 4 12 C2.68 12 1.36 12 0 12 C0 8.04 0 4.08 0 0 Z " fill="#6870DA" transform="translate(366,193)"/>
<path d="M0 0 C0.99 0.33 1.98 0.66 3 1 C2.125 4.875 2.125 4.875 1 6 C-5.52542373 6.23728814 -5.52542373 6.23728814 -8 5 C-8 4.01 -8 3.02 -8 2 C-5.61435923 2.57584432 -3.33317216 3.22227595 -1 4 C-1.33 3.01 -1.66 2.02 -2 1 C-1.34 0.67 -0.68 0.34 0 0 Z " fill="#636BD9" transform="translate(416,199)"/>
<path d="M0 0 C1.485 0.99 1.485 0.99 3 2 C6.12521833 2.16699232 6.12521833 2.16699232 9 2 C9 2.99 9 3.98 9 5 C8.05125 5.226875 7.1025 5.45375 6.125 5.6875 C2.80676612 6.69083714 2.80676612 6.69083714 1.625 9.625 C1.41875 10.40875 1.2125 11.1925 1 12 C0.67 12 0.34 12 0 12 C0 8.04 0 4.08 0 0 Z " fill="#E4E6F8" transform="translate(370,193)"/>
<path d="M0 0 C0.66 0 1.32 0 2 0 C2 0.66 2 1.32 2 2 C2.66 2.33 3.32 2.66 4 3 C3.67 5.97 3.34 8.94 3 12 C2.01 12 1.02 12 0 12 C0 8.04 0 4.08 0 0 Z " fill="#535CD5" transform="translate(386,193)"/>
<path d="M0 0 C2.31 0 4.62 0 7 0 C7.33 1.65 7.66 3.3 8 5 C2.25 5.125 2.25 5.125 0 4 C0 2.68 0 1.36 0 0 Z " fill="#898FE2" transform="translate(372,200)"/>
<path d="M0 0 C0.66 0 1.32 0 2 0 C5.59058175 5.79424351 6.43484866 9.30403958 5 16 C4 12 4 12 3.5625 10.0625 C2.89059054 7.59883197 2.06647322 5.32114759 1 3 C0.34 2.67 -0.32 2.34 -1 2 C-0.67 1.34 -0.34 0.68 0 0 Z " fill="#B9324D" transform="translate(131,72)"/>
<path d="M0 0 C0.33 0 0.66 0 1 0 C1 2.31 1 4.62 1 7 C0.01 7 -0.98 7 -2 7 C-2 6.34 -2 5.68 -2 5 C-3.98 5.66 -5.96 6.32 -8 7 C-8.33 6.01 -8.66 5.02 -9 4 C-6.36 4 -3.72 4 -1 4 C-0.67 2.68 -0.34 1.36 0 0 Z " fill="#DFE1F7" transform="translate(316,196)"/>
<path d="M0 0 C2.31 0 4.62 0 7 0 C7.33 0.99 7.66 1.98 8 3 C5.03 2.505 5.03 2.505 2 2 C1.67 2.66 1.34 3.32 1 4 C0.34 3.67 -0.32 3.34 -1 3 C-0.67 2.01 -0.34 1.02 0 0 Z " fill="#565ED6" transform="translate(410,193)"/>
<path d="M0 0 C1.65 0 3.3 0 5 0 C5.66 1.32 6.32 2.64 7 4 C6.01 4.33 5.02 4.66 4 5 C3.67 4.34 3.34 3.68 3 3 C1.68 3 0.36 3 -1 3 C-0.67 2.01 -0.34 1.02 0 0 Z " fill="#5760D6" transform="translate(307,193)"/>
<path d="M0 0 C1.5 1.0625 1.5 1.0625 3 3 C3.38991688 7.36706908 3.46324069 9.30513897 1 13 C1.020625 11.96875 1.04125 10.9375 1.0625 9.875 C1.00723339 6.44847031 0.65449285 3.35427586 0 0 Z " fill="#B8304A" transform="translate(212,149)"/>
</svg>
