<?xml version="1.0" encoding="UTF-8"?>
<svg version="1.1" xmlns="http://www.w3.org/2000/svg" width="241" height="102">
<path d="M0 0 C10.16258314 6.94927114 14.8527725 16.43315502 17.33203125 28.24609375 C18.99265975 39.87049326 16.13044968 50.92626359 9.80078125 60.71484375 C4.57693828 67.30940584 -1.2926067 71.0793064 -9.19921875 73.71484375 C-11.56300999 73.8503488 -13.93036945 73.92585869 -16.29760742 73.97119141 C-17.37626572 73.9930954 -17.37626572 73.9930954 -18.47671509 74.01544189 C-25.10625975 74.14139781 -31.73698187 74.21019854 -38.36747265 74.26328468 C-42.8182201 74.29903568 -47.26715837 74.35232247 -51.71704102 74.44873047 C-56.02603321 74.54179341 -60.33342566 74.59024179 -64.64336586 74.60767746 C-66.28091414 74.62172987 -67.91840918 74.65127601 -69.55537987 74.69697952 C-82.33981169 75.03644717 -82.33981169 75.03644717 -86.91931152 71.78149414 C-88.94688683 69.52268081 -90.57151895 67.27056649 -92.19921875 64.71484375 C-93.26647588 63.44371416 -94.34933486 62.18526767 -95.45703125 60.94921875 C-96.41538243 59.78992297 -97.37117415 58.62850594 -98.32421875 57.46484375 C-98.82953125 56.87960938 -99.33484375 56.294375 -99.85546875 55.69140625 C-101.26953125 53.94921875 -101.26953125 53.94921875 -103.19921875 50.71484375 C-102.50086602 46.76333123 -100.24060661 44.31561937 -97.57421875 41.40234375 C-96.94257812 40.70496094 -96.3109375 40.00757813 -95.66015625 39.2890625 C-94.93699219 38.50982422 -94.93699219 38.50982422 -94.19921875 37.71484375 C-90.33523783 39.2378092 -88.48001133 41.54102446 -85.94921875 44.77734375 C-82.33592068 49.33141761 -78.58578926 53.67629893 -74.6328125 57.9375 C-73.19921875 59.71484375 -73.19921875 59.71484375 -73.19921875 61.71484375 C-63.29921875 61.21984375 -63.29921875 61.21984375 -53.19921875 60.71484375 C-54.51921875 58.73484375 -55.83921875 56.75484375 -57.19921875 54.71484375 C-58.2109375 52.3359375 -58.2109375 52.3359375 -58.88671875 50.15234375 C-59.23283203 49.06759766 -59.23283203 49.06759766 -59.5859375 47.9609375 C-62.86608032 35.94767557 -61.64059305 24.13296062 -56.01171875 13.02734375 C-50.68071101 4.12104938 -43.67625123 -1.12353477 -33.96875 -4.36328125 C-22.3609288 -7.20208519 -10.3489581 -6.04761495 0 0 Z M-39.9453125 18.7421875 C-44.67135512 26.17723897 -45.36284074 34.62522202 -43.73046875 43.16796875 C-41.80614882 49.90308851 -38.21841527 54.65630067 -32.44921875 58.58984375 C-24.5514584 61.32368387 -17.78918763 61.32121068 -10.19921875 57.71484375 C-5.10725304 54.70595492 -2.52732215 50.02471036 -0.19921875 44.71484375 C2.17431529 35.05650082 0.71583611 26.45821226 -4.296875 17.82421875 C-7.37998963 13.68552928 -11.32620485 11.18500727 -16.19921875 9.71484375 C-26.09215831 8.30156667 -33.7559541 10.79889648 -39.9453125 18.7421875 Z " fill="#F82728" transform="translate(195.19921875,22.28515625)"/>
<path d="M0 0 C2.47923801 -0.02685095 4.9581884 -0.04676547 7.4375 -0.0625 C8.14455078 -0.07087891 8.85160156 -0.07925781 9.58007812 -0.08789062 C11.38693559 -0.09653588 13.19387603 -0.05220011 15 0 C16.71443219 1.71443219 16.23052967 4.00445241 16.31640625 6.34765625 C16.35830078 7.42724609 16.40019531 8.50683594 16.44335938 9.61914062 C16.48267578 10.75544922 16.52199219 11.89175781 16.5625 13.0625 C16.60568359 14.20267578 16.64886719 15.34285156 16.69335938 16.51757812 C16.79982839 19.34492195 16.90184207 22.17235738 17 25 C23.17698619 17.73771157 29.30966119 10.4478905 35.3203125 3.046875 C37 1 37 1 38 0 C39.56172745 -0.08685603 41.12729344 -0.10702219 42.69140625 -0.09765625 C43.63564453 -0.09443359 44.57988281 -0.09121094 45.55273438 -0.08789062 C46.54595703 -0.07951172 47.53917969 -0.07113281 48.5625 -0.0625 C49.55958984 -0.05798828 50.55667969 -0.05347656 51.58398438 -0.04882812 C54.05604849 -0.03700007 56.52799518 -0.02051849 59 0 C55.36405577 4.93799467 51.62881848 9.73103612 47.625 14.375 C44.35370805 18.20329571 41.12581976 22.05091907 38 26 C34.90926483 29.9014198 31.72621494 33.71091352 28.5 37.5 C24.68566773 41.98227688 20.95838367 46.51714667 17.30078125 51.12890625 C14.19156251 55.00883117 11.03498467 58.84887474 7.875 62.6875 C6.99557739 63.75726074 6.99557739 63.75726074 6.09838867 64.84863281 C5.52709229 65.54182617 4.9557959 66.23501953 4.3671875 66.94921875 C3.86300293 67.56112061 3.35881836 68.17302246 2.83935547 68.8034668 C2.23236816 69.52832275 1.62538086 70.25317871 1 71 C0.61595001 71.58968063 0.23190002 72.17936127 -0.16378784 72.78691101 C-2.24760256 75.71810527 -3.78300444 77.6838425 -7.34762573 78.60987854 C-10.21265872 78.80982561 -12.9970552 78.78759035 -15.8671875 78.68359375 C-16.90191193 78.67368912 -17.93663635 78.66378448 -19.00271606 78.65357971 C-22.29494305 78.6145157 -25.58378768 78.52670513 -28.875 78.4375 C-31.11193088 78.40237598 -33.34891423 78.37043889 -35.5859375 78.34179688 C-41.05843806 78.26478102 -46.5289774 78.14777362 -52 78 C-51.40578247 77.31871033 -51.40578247 77.31871033 -50.79956055 76.62365723 C-47.41676812 72.72119617 -47.41676812 72.72119617 -44.33203125 68.58398438 C-42.02734507 65.5653787 -39.90362798 63.40030687 -36.07275391 62.59472656 C-30.38635628 62.00072044 -24.70079085 62.27201138 -19 62.5 C-17.25398782 62.54017545 -15.50788682 62.5766691 -13.76171875 62.609375 C-9.50560182 62.69706405 -5.25378594 62.8348291 -1 63 C-1.00222061 62.24022858 -1.00444122 61.48045715 -1.00672913 60.69766235 C-1.02674549 53.54623969 -1.04198102 46.39483056 -1.05181217 39.24338722 C-1.05703632 35.56654289 -1.0641255 31.88972166 -1.07543945 28.21289062 C-1.08628493 24.6662104 -1.09228037 21.11955243 -1.09487724 17.5728569 C-1.09672849 16.21803817 -1.10034338 14.86322069 -1.10573006 13.50841141 C-1.11296238 11.61450635 -1.11340824 9.72057902 -1.11352539 7.82666016 C-1.115746 6.74744293 -1.11796661 5.66822571 -1.12025452 4.55630493 C-1 2 -1 2 0 0 Z " fill="#F82727" transform="translate(68,17)"/>
<path d="M0 0 C2.38687436 1.9528972 4.6971609 3.94963164 7 6 C7.49274414 6.42925781 7.98548828 6.85851562 8.49316406 7.30078125 C10.14598057 8.7579091 11.76131936 10.24972872 13.375 11.75 C14.1788916 12.44657715 14.1788916 12.44657715 14.99902344 13.15722656 C20.1835976 18.09602335 19.1777775 19.777775 20 28 C29.57 28.33 39.14 28.66 49 29 C47.02 31.97 45.04 34.94 43 38 C42.25363281 39.16789062 41.50726563 40.33578125 40.73828125 41.5390625 C37.27888899 44.64807409 35.32460616 44.63120503 30.80664062 44.52734375 C29.94232422 44.47707031 29.07800781 44.42679688 28.1875 44.375 C27.30384766 44.34792969 26.42019531 44.32085937 25.50976562 44.29296875 C23.33878886 44.22255869 21.16907471 44.11494606 19 44 C19.10441406 44.75313477 19.20882813 45.50626953 19.31640625 46.28222656 C19.69036687 51.00570538 19.89687002 54.57684167 17.3125 58.67773438 C14.98503644 61.19309212 12.56877804 63.48206984 10 65.75 C9.14148437 66.554375 8.28296875 67.35875 7.3984375 68.1875 C5.2902687 70.15512422 3.15963234 72.08926146 1 74 C-1.22274342 70.42610162 -1.2478879 67.49489607 -1.24291992 63.33544922 C-1.24481827 62.6748349 -1.24671661 62.01422058 -1.24867249 61.33358765 C-1.25236744 59.15716562 -1.24169621 56.98107969 -1.23046875 54.8046875 C-1.22927631 53.2906193 -1.22882392 51.77655034 -1.2290802 50.26248169 C-1.22751765 47.09339755 -1.21924411 43.92442674 -1.20581055 40.75537109 C-1.18879201 36.68865356 -1.18499717 32.62206018 -1.18575573 28.5553112 C-1.18548418 25.43098765 -1.18000584 22.30669136 -1.17275429 19.18237686 C-1.16956785 17.68242728 -1.16760027 16.1824746 -1.16686058 14.68252182 C-1.16469839 12.59021458 -1.1559577 10.49804047 -1.14526367 8.40576172 C-1.13954597 6.61850174 -1.13954597 6.61850174 -1.13371277 4.7951355 C-1 2 -1 2 0 0 Z " fill="#F72829" transform="translate(9,19)"/>
<path d="M0 0 C15.26957744 -1.03018139 26.38103445 3.09027071 38 13 C44.89379254 19.14810637 50.80873928 29.85172854 52 39 C52.11678799 41.67678073 52.0454506 44.31841457 52 47 C49.36 47 46.72 47 44 47 C43.7525 46.071875 43.505 45.14375 43.25 44.1875 C39.4444922 31.13249408 34.9200579 21.38893179 23 14 C15.66904448 10.46661153 8.01757602 9.06341322 0 8 C0 5.36 0 2.72 0 0 Z " fill="#040404" transform="translate(174,3)"/>
<path d="M0 0 C14.19 0 28.38 0 43 0 C41.45912522 6.16349911 39.3134942 10.3255609 34 14 C27.24928453 16.01825514 19.73944632 16.04327407 13 14 C7.5401328 10.81567378 3.63896019 6.08374216 0 1 C0 0.67 0 0.34 0 0 Z " fill="#FB2526" transform="translate(16,17)"/>
<path d="M0 0 C14.19 0 28.38 0 43 0 C42.67 1.32 42.34 2.64 42 4 C41.505 3.01 41.505 3.01 41 2 C32.42 2.33 23.84 2.66 15 3 C15 5.64 15 8.28 15 11 C21.6 11.33 28.2 11.66 35 12 C34.67 12.66 34.34 13.32 34 14 C16.73016067 16.06963753 16.73016067 16.06963753 10.72949219 12.74023438 C6.49198268 9.38220797 3.13682632 5.38224531 0 1 C0 0.67 0 0.34 0 0 Z " fill="#E13130" transform="translate(16,17)"/>
<path d="M0 0 C1.9375 1.0625 1.9375 1.0625 3 3 C3.36528977 6.4093712 3.6140629 8.88023824 1.9375 11.9375 C-1.11976176 13.6140629 -3.5906288 13.36528977 -7 13 C-8.9375 11.9375 -8.9375 11.9375 -10 10 C-10.36528977 6.5906288 -10.6140629 4.11976176 -8.9375 1.0625 C-5.88023824 -0.6140629 -3.4093712 -0.36528977 0 0 Z " fill="#030303" transform="translate(178,50)"/>
<path d="M0 0 C6.93 0 13.86 0 21 0 C17.39758945 4.80321407 13.87208829 9.44460201 10 14 C9.87625 13.360625 9.7525 12.72125 9.625 12.0625 C9.41875 11.381875 9.2125 10.70125 9 10 C8.34 9.67 7.68 9.34 7 9 C7.66 6.69 8.32 4.38 9 2 C5.7 2 2.4 2 -1 2 C-0.67 1.34 -0.34 0.68 0 0 Z " fill="#E52E2E" transform="translate(106,17)"/>
<path d="M0 0 C0 3 0 3 -1.4375 5.375 C-3.00282114 8.00473952 -3.57112625 9.99788375 -4 13 C-4.66 13 -5.32 13 -6 13 C-7.16148896 28.65730465 -7.16148896 28.65730465 -3 43 C-3.33 43.99 -3.66 44.98 -4 46 C-3.34 46 -2.68 46 -2 46 C-0.93224776 47.96466413 0.06553465 49.96855359 1 52 C0.67 52.66 0.34 53.32 0 54 C-7.7568675 44.14668182 -9.83458847 33.39743237 -9 21 C-7.77827133 13.83316645 -5.29900183 5.29900183 0 0 Z " fill="#D33B3C" transform="translate(143,30)"/>
<path d="M0 0 C8.13578229 7.23180648 10.96597025 16.7640104 11.9140625 27.421875 C12.0456333 31.36899906 11.56685929 35.09496931 11 39 C10.67 39 10.34 39 10 39 C9.96261719 37.94941406 9.92523438 36.89882812 9.88671875 35.81640625 C9.54523685 28.02449444 8.97173649 21.30551888 6 14 C5.67 13.01 5.34 12.02 5 11 C3.68 11 2.36 11 1 11 C0.67 7.37 0.34 3.74 0 0 Z " fill="#E63736" transform="translate(201,28)"/>
<path d="M0 0 C0.66 0.33 1.32 0.66 2 1 C0.9275 1.763125 -0.145 2.52625 -1.25 3.3125 C-6.60694432 7.94142146 -8.62099605 13.96631507 -9.2734375 20.91015625 C-9.34368658 26.01726409 -8.89316663 30.9759377 -8 36 C-8.66 36 -9.32 36 -10 36 C-14.01335771 26.7191103 -12.04780167 17.92667112 -9.0703125 8.65234375 C-8 6 -8 6 -6 4 C-5.01 3.67 -4.02 3.34 -3 3 C-3 2.34 -3 1.68 -3 1 C-2.01 0.67 -1.02 0.34 0 0 Z " fill="#DD3C3E" transform="translate(161,34)"/>
<path d="M0 0 C2.47923801 -0.02685095 4.9581884 -0.04676547 7.4375 -0.0625 C8.14455078 -0.07087891 8.85160156 -0.07925781 9.58007812 -0.08789062 C11.38693559 -0.09653588 13.19387603 -0.05220011 15 0 C16.71443219 1.71443219 16.23052967 4.00445241 16.31640625 6.34765625 C16.35830078 7.42724609 16.40019531 8.50683594 16.44335938 9.61914062 C16.48267578 10.75544922 16.52199219 11.89175781 16.5625 13.0625 C16.60568359 14.20267578 16.64886719 15.34285156 16.69335938 16.51757812 C16.79982839 19.34492195 16.90184207 22.17235738 17 25 C17.99 24.34 18.98 23.68 20 23 C19.625 24.9375 19.625 24.9375 19 27 C18.34 27.33 17.68 27.66 17 28 C16.34 27.67 15.68 27.34 15 27 C15 18.75 15 10.5 15 2 C10.38 2 5.76 2 1 2 C1 3.65 1 5.3 1 7 C-0.0625 5.1875 -0.0625 5.1875 -1 3 C-0.67 2.01 -0.34 1.02 0 0 Z " fill="#D03434" transform="translate(68,17)"/>
<path d="M0 0 C9.9 0.33 19.8 0.66 30 1 C24 10 24 10 22 11 C21.34 9.68 20.68 8.36 20 7 C21.66666667 5.33333333 23.33333333 3.66666667 25 2 C16.75 2 8.5 2 0 2 C0 1.34 0 0.68 0 0 Z " fill="#E62B2A" transform="translate(28,47)"/>
<path d="M0 0 C1.65 0.33 3.3 0.66 5 1 C1.14475224 5.90025997 -2.6362389 9.76150273 -8 13 C-8.99 12.67 -9.98 12.34 -11 12 C-10.34 12 -9.68 12 -9 12 C-9.33 11.01 -9.66 10.02 -10 9 C-8.68 9 -7.36 9 -6 9 C-5.938125 8.4225 -5.87625 7.845 -5.8125 7.25 C-4.68318434 4.12266432 -2.61937152 2.9477378 0 1 C0 0.67 0 0.34 0 0 Z " fill="#EE3131" transform="translate(200,81)"/>
<path d="M0 0 C8.24366573 2.29462861 15.09397169 8.10139418 20.25 14.875 C20.8275 15.90625 21.405 16.9375 22 18 C21.67 18.99 21.34 19.98 21 21 C20.55269531 20.39671875 20.10539062 19.7934375 19.64453125 19.171875 C16.37797484 14.85361279 13.34173971 11.28919675 9 8 C9 7.34 9 6.68 9 6 C8.2575 5.7525 7.515 5.505 6.75 5.25 C3.79875938 3.90852699 2.15185026 2.39094474 0 0 Z " fill="#0E100F" transform="translate(197,7)"/>
<path d="M0 0 C1.9375 1.375 1.9375 1.375 3 3 C3 3.66 3 4.32 3 5 C2.34 5 1.68 5 1 5 C0.67 4.34 0.34 3.68 0 3 C-2.3727086 2.07533247 -2.3727086 2.07533247 -5 2 C-7 3 -7 3 -8 5 C-7.76956136 7.65466049 -7.76956136 7.65466049 -7 10 C-4.6984589 10.77802187 -4.6984589 10.77802187 -2 11 C0.30504044 9.66846734 0.30504044 9.66846734 2 8 C1.125 11.875 1.125 11.875 0 13 C-6.16698656 13.45681382 -6.16698656 13.45681382 -8.9375 11.9375 C-10.6140629 8.88023824 -10.36528977 6.4093712 -10 3 C-7.77766882 -1.05248626 -4.20052866 -0.45005664 0 0 Z " fill="#171717" transform="translate(178,50)"/>
<path d="M0 0 C1.32 0.66 2.64 1.32 4 2 C-1.445 8.435 -1.445 8.435 -7 15 C-7.33 13.68 -7.66 12.36 -8 11 C-7.34 11 -6.68 11 -6 11 C-6.33 10.01 -6.66 9.02 -7 8 C-6.34 7.67 -5.68 7.34 -5 7 C-4.34 7.33 -3.68 7.66 -3 8 C-3 7.01 -3 6.02 -3 5 C-2.34 5 -1.68 5 -1 5 C-0.67 3.35 -0.34 1.7 0 0 Z " fill="#E62A2D" transform="translate(76,73)"/>
<path d="M0 0 C0.33 0 0.66 0 1 0 C1.04898438 0.61488281 1.09796875 1.22976562 1.1484375 1.86328125 C1.22320312 2.67152344 1.29796875 3.47976562 1.375 4.3125 C1.44460937 5.11300781 1.51421875 5.91351563 1.5859375 6.73828125 C1.89564426 9.27224441 1.89564426 9.27224441 4 12 C3.67 12.99 3.34 13.98 3 15 C3.66 15 4.32 15 5 15 C6.06775224 16.96466413 7.06553465 18.96855359 8 21 C7.67 21.66 7.34 22.32 7 23 C2.58647339 17.0765827 -0.30885124 12.81732632 -0.125 5.1875 C-0.10695312 4.21167969 -0.08890625 3.23585938 -0.0703125 2.23046875 C-0.04710937 1.49441406 -0.02390625 0.75835937 0 0 Z " fill="#E03738" transform="translate(136,61)"/>
<path d="M0 0 C0.556875 0.7425 1.11375 1.485 1.6875 2.25 C3.94893826 4.93927793 6.19743096 6.89807322 9 9 C10.1446875 9.86625 10.1446875 9.86625 11.3125 10.75 C11.869375 11.1625 12.42625 11.575 13 12 C10.69 11.67 8.38 11.34 6 11 C6 10.34 6 9.68 6 9 C3.525 8.01 3.525 8.01 1 7 C0.67 4.69 0.34 2.38 0 0 Z " fill="#DD393C" transform="translate(153,70)"/>
<path d="M0 0 C7.12689226 2.52410768 12.77474923 6.66212384 17 13 C12.90247817 11.13749008 9.70006269 8.46991368 6.21875 5.65625 C4.2027264 4.15133098 2.28350697 3.03795771 0 2 C0 1.34 0 0.68 0 0 Z " fill="#140F11" transform="translate(193,13)"/>
<path d="M0 0 C1.72863281 0.02707031 1.72863281 0.02707031 3.4921875 0.0546875 C4.36101562 0.07789062 5.22984375 0.10109375 6.125 0.125 C6.125 0.455 6.125 0.785 6.125 1.125 C3.155 1.125 0.185 1.125 -2.875 1.125 C-3.205 1.785 -3.535 2.445 -3.875 3.125 C-6.185 3.125 -8.495 3.125 -10.875 3.125 C-11.205 3.785 -11.535 4.445 -11.875 5.125 C-12.205 4.135 -12.535 3.145 -12.875 2.125 C-8.41165816 0.40206865 -4.77298769 -0.09740791 0 0 Z " fill="#E02D2D" transform="translate(167.875,17.875)"/>
<path d="M0 0 C1.32 0.66 2.64 1.32 4 2 C3.67 2.66 3.34 3.32 3 4 C2.01 3.67 1.02 3.34 0 3 C-0.33 4.65 -0.66 6.3 -1 8 C-4 8 -4 8 -6 7 C-4.02 4.69 -2.04 2.38 0 0 Z " fill="#E03234" transform="translate(101,60)"/>
<path d="M0 0 C1.65 0 3.3 0 5 0 C4.01 1.485 4.01 1.485 3 3 C1.12060547 3.34057617 1.12060547 3.34057617 -1.1328125 3.29296875 C-1.93847656 3.28330078 -2.74414062 3.27363281 -3.57421875 3.26367188 C-4.41597656 3.23853516 -5.25773437 3.21339844 -6.125 3.1875 C-6.97449219 3.17396484 -7.82398438 3.16042969 -8.69921875 3.14648438 C-10.79974837 3.11108219 -12.89995293 3.05727401 -15 3 C-15 2.67 -15 2.34 -15 2 C-10.05 1.67 -5.1 1.34 0 1 C0 0.67 0 0.34 0 0 Z " fill="#E82D2D" transform="translate(45,59)"/>
<path d="M0 0 C3.65882521 3.3621637 6.14420341 6.36050852 8 11 C7.67 11.66 7.34 12.32 7 13 C4 8.25 4 8.25 4 6 C2.68 5.34 1.36 4.68 0 4 C0 2.68 0 1.36 0 0 Z " fill="#D63E3C" transform="translate(201,28)"/>
<path d="M0 0 C0 0.99 0 1.98 0 3 C-0.66 3.66 -1.32 4.32 -2 5 C-1.34 5.33 -0.68 5.66 0 6 C0 6.66 0 7.32 0 8 C-2.31 8 -4.62 8 -7 8 C-6.02133662 6.85373678 -5.04205413 5.70800212 -4.0625 4.5625 C-3.51722656 3.92441406 -2.97195312 3.28632812 -2.41015625 2.62890625 C-1.63204305 1.73008851 -0.84063472 0.84063472 0 0 Z " fill="#E03231" transform="translate(23,87)"/>
<path d="M0 0 C6.58441558 1.46320346 6.58441558 1.46320346 8.5 3.9375 C9 6 9 6 8 9 C7.236875 8.071875 6.47375 7.14375 5.6875 6.1875 C3.88151448 4.01723899 2.0523371 1.94431935 0 0 Z " fill="#DE3634" transform="translate(184,34)"/>
<path d="M0 0 C0.33 0.99 0.66 1.98 1 3 C-1 5 -1 5 -4.625 5.125 C-5.73875 5.08375 -6.8525 5.0425 -8 5 C-8.66 3.68 -9.32 2.36 -10 1 C-9.13375 1.5259375 -9.13375 1.5259375 -8.25 2.0625 C-5.6037015 3.16512438 -4.62384878 3.04953951 -2 2 C-1.34 1.34 -0.68 0.68 0 0 Z " fill="#212121" transform="translate(179,58)"/>
<path d="M0 0 C0.66 0.33 1.32 0.66 2 1 C-0.81070808 5.21606212 -4.5572744 6.79754241 -9 9 C-8.06725891 7.87105124 -7.12859878 6.74699124 -6.1875 5.625 C-5.66542969 4.99851562 -5.14335937 4.37203125 -4.60546875 3.7265625 C-3 2 -3 2 0 0 Z " fill="#D43232" transform="translate(153,21)"/>
<path d="M0 0 C0.33 0 0.66 0 1 0 C1.33 2.97 1.66 5.94 2 9 C2.99 8.34 3.98 7.68 5 7 C4.625 8.9375 4.625 8.9375 4 11 C3.01 11.495 3.01 11.495 2 12 C1.34 11.67 0.68 11.34 0 11 C0 7.37 0 3.74 0 0 Z " fill="#D72B2C" transform="translate(83,33)"/>
<path d="M0 0 C0.33 0 0.66 0 1 0 C1.33 2.97 1.66 5.94 2 9 C1.01 9 0.02 9 -1 9 C-1.09765625 2.84765625 -1.09765625 2.84765625 -1 1 C-0.67 0.67 -0.34 0.34 0 0 Z " fill="#FE201E" transform="translate(9,80)"/>
<path d="M0 0 C0.66 0 1.32 0 2 0 C1.6875 2.375 1.6875 2.375 1 5 C0.01 5.66 -0.98 6.32 -2 7 C-2.33 5.35 -2.66 3.7 -3 2 C-2.01 2 -1.02 2 0 2 C0 1.34 0 0.68 0 0 Z " fill="#EB2A2A" transform="translate(107,36)"/>
<path d="M0 0 C1 2 1 2 0.9375 4 C0 6 0 6 -3.0625 7.25 C-4.031875 7.4975 -5.00125 7.745 -6 8 C-4.02 5.36 -2.04 2.72 0 0 Z " fill="#D32D31" transform="translate(104,19)"/>
<path d="M0 0 C2.31 0 4.62 0 7 0 C4.6875 2.0625 4.6875 2.0625 2 4 C1.01 3.67 0.02 3.34 -1 3 C-0.34 3 0.32 3 1 3 C0.67 2.01 0.34 1.02 0 0 Z " fill="#E03835" transform="translate(190,90)"/>
<path d="M0 0 C-0.60183749 2.02045442 -1.27306096 4.02111039 -2 6 C-2.99 6.495 -2.99 6.495 -4 7 C-4.33 5.35 -4.66 3.7 -5 2 C-2 0 -2 0 0 0 Z " fill="#E63C3D" transform="translate(209,74)"/>
<path d="M0 0 C1.32 1.32 2.64 2.64 4 4 C3.01 4 2.02 4 1 4 C1 5.98 1 7.96 1 10 C0.67 10 0.34 10 0 10 C-1.125 2.25 -1.125 2.25 0 0 Z " fill="#E3413F" transform="translate(9,19)"/>
<path d="M0 0 C0 0.99 0 1.98 0 3 C-0.66 2.67 -1.32 2.34 -2 2 C-1.34 1.34 -0.68 0.68 0 0 Z " fill="#7E464B" transform="translate(64,60)"/>
</svg>
